<svg width="20" height="20" viewBox="0 0 20 20" fill="none" xmlns="http://www.w3.org/2000/svg">
<g clip-path="url(#clip0_4742_4144)">
<path d="M3.1366 8.18164H0.909362C0.407234 8.18164 0 8.58888 0 9.091V19.091C0 19.5927 0.407234 19.9999 0.909362 19.9999H3.1366C3.63872 19.9999 4.04553 19.5927 4.04553 19.091V9.091C4.04553 8.58888 3.63872 8.18164 3.1366 8.18164Z" fill="#B1B1B1"/>
<path d="M8.45495 10.9087H6.22772C5.72517 10.9087 5.31836 11.3159 5.31836 11.8181V19.0904C5.31836 19.5929 5.72517 19.9998 6.22772 19.9998H8.45495C8.95708 19.9998 9.36389 19.5925 9.36389 19.0904V11.8181C9.36389 11.3159 8.95708 10.9087 8.45495 10.9087Z" fill="#B1B1B1"/>
<path d="M13.7719 10.9087H11.5447C11.0426 10.9087 10.6357 11.3159 10.6357 11.8181V19.0904C10.6357 19.5929 11.0426 19.9998 11.5447 19.9998H13.7719C14.2745 19.9998 14.6813 19.5925 14.6813 19.0904V11.8181C14.6813 11.3159 14.2745 10.9087 13.7719 10.9087Z" fill="#B1B1B1"/>
<path d="M19.0903 8.18164H16.863C16.3609 8.18164 15.9541 8.58888 15.9541 9.091V19.091C15.9541 19.5931 16.3609 19.9999 16.863 19.9999H19.0903C19.5924 19.9999 19.9996 19.5923 19.9996 19.091V9.091C19.9996 8.58888 19.5924 8.18164 19.0903 8.18164Z" fill="#B1B1B1"/>
<path d="M10.2646 5.47656V7.11316C10.76 7.08039 11.2821 6.84805 11.2821 6.30295C11.2821 5.74039 10.7098 5.57571 10.2646 5.47656Z" fill="#B1B1B1"/>
<path d="M8.8418 3.51786C8.8418 3.93147 9.14946 4.17062 9.76946 4.29488V2.81445C9.20605 2.83105 8.8418 3.16211 8.8418 3.51786Z" fill="#B1B1B1"/>
<path d="M10 0C7.24298 0 5 2.2434 5 5C5 7.75575 7.24298 9.99915 10 9.99915C12.757 9.99915 15 7.75575 15 5C15 2.2434 12.757 0 10 0ZM10.2651 7.95702V8.46894C10.2651 8.60979 10.157 8.75021 10.0157 8.75021C9.87617 8.75021 9.76936 8.60979 9.76936 8.46894V7.95702C8.37234 7.92298 7.67745 7.08809 7.67745 6.43489C7.67745 6.10511 7.87702 5.91447 8.18936 5.91447C9.11532 5.91447 8.39532 7.05532 9.76936 7.11277V5.38511C8.54383 5.16255 7.8017 4.62511 7.8017 3.70766C7.8017 2.58383 8.73617 2.00426 9.76936 1.97192V1.53106C9.76936 1.39021 9.87617 1.24979 10.0157 1.24979C10.157 1.24979 10.2651 1.39021 10.2651 1.53106V1.97192C10.9094 1.98894 12.2323 2.39319 12.2323 3.20383C12.2323 3.52596 11.9915 3.71575 11.7102 3.71575C11.1723 3.71575 11.18 2.83192 10.2651 2.81489V4.38553C11.3562 4.61745 12.3226 4.93958 12.3226 6.21277C12.3226 7.32 11.4962 7.8817 10.2651 7.95702Z" fill="#B1B1B1"/>
</g>
<defs>
<clipPath id="clip0_4742_4144">
<rect width="20" height="20" fill="white"/>
</clipPath>
</defs>
</svg>
