<svg width="20" height="20" viewBox="0 0 20 20" fill="none" xmlns="http://www.w3.org/2000/svg">
<g clip-path="url(#clip0_4742_4166)">
<path d="M17.6621 5.5101V5.23651C17.6621 3.97881 16.6389 2.95557 15.3812 2.95557H2.28094C1.0232 2.95561 0 3.97881 0 5.23651V5.5101H17.6621Z" fill="#B1B1B1"/>
<path d="M10.4347 12.8473C10.4347 11.6642 10.8152 10.5396 11.5178 9.61279H0V12.7945C0 14.0522 1.0232 15.0754 2.28094 15.0754H10.9162C10.601 14.385 10.4347 13.629 10.4347 12.8473ZM8.83109 12.156H6.8625V10.9841H8.83109V12.156ZM2.62727 10.9841H5.69062V12.156H2.62727V10.9841Z" fill="#B1B1B1"/>
<path d="M12.7344 8.441C13.6281 7.81572 14.6898 7.47885 15.8033 7.47885C16.4478 7.47885 17.0748 7.59201 17.6621 7.8083V6.68213H0V8.441H12.7344Z" fill="#B1B1B1"/>
<path d="M19.9999 12.8471C19.9999 10.5293 18.1209 8.65039 15.8032 8.65039C13.4854 8.65039 11.6064 10.5293 11.6064 12.8471C11.6064 15.1648 13.4854 17.0438 15.8032 17.0438C18.1209 17.0438 19.9999 15.1648 19.9999 12.8471ZM16.3689 15.0891V15.566H15.7829V15.566V15.566H15.197V15.0926C14.8427 14.9726 14.5529 14.7616 14.2698 14.5546L14.9616 13.6087C15.3419 13.8868 15.5365 14.0205 15.8032 14.0205C15.9539 14.0205 16.076 13.9487 16.1218 13.8332C16.1772 13.6934 16.0989 13.5645 15.9123 13.4886C15.9123 13.4886 15.0747 13.2092 14.6875 12.8144C14.3626 12.4832 14.2593 12.0164 14.3627 11.5724C14.4668 11.1254 14.7687 10.7758 15.197 10.6012V10.1281H16.3689V10.5816C16.6665 10.6643 16.9184 10.7864 17.0632 10.865L16.5041 11.8949C16.1334 11.6937 15.7924 11.6333 15.6597 11.6787C15.5309 11.7227 15.5113 11.8067 15.5039 11.8383C15.4935 11.8831 15.4879 11.9519 15.5596 12.0317C15.6285 12.1086 16.3541 12.4032 16.3541 12.4032C17.137 12.7219 17.5054 13.5223 17.2112 14.2649C17.0584 14.6509 16.7507 14.9432 16.3689 15.0891Z" fill="#B1B1B1"/>
</g>
<defs>
<clipPath id="clip0_4742_4166">
<rect width="20" height="20" fill="white"/>
</clipPath>
</defs>
</svg>
