<svg width="20" height="20" viewBox="0 0 20 20" fill="none" xmlns="http://www.w3.org/2000/svg">
<g clip-path="url(#clip0_4742_4178)">
<path d="M4.16699 18.3332C4.16752 18.775 4.34328 19.1987 4.65573 19.5111C4.96817 19.8236 5.39179 19.9993 5.83366 19.9998H14.167C14.6089 19.9993 15.0325 19.8236 15.3449 19.5111C15.6574 19.1987 15.8331 18.775 15.8337 18.3332V17.604H4.16699V18.3332Z" fill="#B1B1B1"/>
<path d="M15.8337 1.66667C15.8331 1.2248 15.6574 0.801181 15.3449 0.488734C15.0325 0.176287 14.6089 0.000523784 14.167 0L5.83366 0C5.39179 0.000523784 4.96817 0.176287 4.65573 0.488734C4.34328 0.801181 4.16752 1.2248 4.16699 1.66667V2.5H15.8337V1.66667Z" fill="#B1B1B1"/>
<path d="M19.7675 5.36052L17.2675 2.75635L16.0652 3.91051L17.1111 5.0001H15.833V6.66677H17.201L16.0898 7.73177L17.2429 8.9351L19.7429 6.53927C19.822 6.46351 19.8853 6.37291 19.9293 6.27266C19.9734 6.1724 19.9972 6.06445 19.9995 5.95498C20.0018 5.84551 19.9824 5.73667 19.9426 5.63467C19.9028 5.53266 19.8433 5.4395 19.7675 5.36052Z" fill="#B1B1B1"/>
<path d="M13.3337 5.00016H15.8337V3.3335H4.16699V13.3335H6.66699V15.0002H4.16699V16.6668H15.8337V6.66683H13.3337V5.00016ZM12.5003 8.3335H9.58366C9.47315 8.3335 9.36717 8.3774 9.28903 8.45554C9.21089 8.53368 9.16699 8.63966 9.16699 8.75016C9.16699 8.86067 9.21089 8.96665 9.28903 9.04479C9.36717 9.12293 9.47315 9.16683 9.58366 9.16683H10.417C10.9336 9.16631 11.432 9.35778 11.8155 9.70407C12.1989 10.0504 12.4399 10.5268 12.4919 11.0408C12.5438 11.5548 12.4029 12.0698 12.0964 12.4858C11.79 12.9017 11.34 13.189 10.8337 13.2918V14.1668H9.16699V13.3335H7.50033V11.6668H10.417C10.5275 11.6668 10.6335 11.6229 10.7116 11.5448C10.7898 11.4667 10.8337 11.3607 10.8337 11.2502C10.8337 11.1397 10.7898 11.0337 10.7116 10.9555C10.6335 10.8774 10.5275 10.8335 10.417 10.8335H9.58366C9.06701 10.834 8.5686 10.6425 8.18519 10.2963C7.80177 9.94997 7.5607 9.47357 7.50878 8.95954C7.45686 8.44551 7.59779 7.93052 7.90421 7.51455C8.21063 7.09858 8.66068 6.81131 9.16699 6.7085V5.8335H10.8337V6.66683H12.5003V8.3335Z" fill="#B1B1B1"/>
<path d="M2.79862 13.3333L3.90987 12.2683L2.75674 11.0649L0.256745 13.4608C0.177692 13.5365 0.114344 13.6271 0.0703209 13.7274C0.0262982 13.8276 0.00246423 13.9356 0.000181182 14.0451C-0.00210186 14.1545 0.0172108 14.2634 0.0570153 14.3654C0.0968199 14.4674 0.156336 14.5605 0.232162 14.6395L2.73216 17.2437L3.93445 16.0895L2.88852 14.9999H4.16664V13.3333H2.79862Z" fill="#B1B1B1"/>
</g>
<defs>
<clipPath id="clip0_4742_4178">
<rect width="20" height="20" fill="white"/>
</clipPath>
</defs>
</svg>
