<svg width="271" height="119" viewBox="0 0 271 119" fill="none" xmlns="http://www.w3.org/2000/svg">
<path d="M22.8 28.9831H77.2V44.2824H22.8V57.0487H78.3V73.6652H0V1.32275H77.2V17.8379H22.8V28.9831Z" fill="white"/>
<path d="M140.202 50.8727C143.335 50.3979 145.535 48.9734 146.802 46.5992C148.135 44.2251 148.802 40.7957 148.802 36.3112C148.802 31.8266 148.235 28.6083 147.102 26.6562C146.035 24.7569 144.435 23.8073 142.302 23.8073C140.569 23.8072 139.302 24.3876 138.502 25.5483C137.702 26.709 137.135 28.6083 136.802 31.2463L134.402 53.7217C133.669 60.3694 131.569 65.3551 128.102 68.6789C124.635 72.0028 119.402 73.6647 112.402 73.6647C105.935 73.6647 100.935 72.2929 97.4019 69.5495C93.8686 66.806 91.4353 62.8227 90.1019 57.5995C88.7019 52.4291 88.0019 45.7023 88.0019 37.4191C88.0019 29.4525 88.7353 22.9367 90.2019 17.8718C91.6686 12.8597 94.2686 8.95554 98.0019 6.15931C101.802 3.41583 107.169 1.93857 114.102 1.72754L114.102 22.6202C109.969 23.2005 107.169 24.7305 105.702 27.2102C104.235 29.6899 103.502 33.4094 103.502 38.3688C103.502 43.2754 104.069 46.8366 105.202 49.0525C106.402 51.2684 108.235 52.3763 110.702 52.3763C112.769 52.3763 114.269 51.7432 115.202 50.477C116.202 49.2108 116.835 47.417 117.102 45.0956L119.802 23.3324C120.669 16.5792 122.702 11.5144 125.902 8.13778C129.102 4.81395 134.135 3.15204 141.002 3.15204C149.469 3.15204 155.402 6.02741 158.802 11.7782C162.269 17.5289 164.002 25.9704 164.002 37.1026C164.002 48.2347 162.235 56.7026 158.702 62.5061C155.235 68.3624 149.069 71.4224 140.202 71.6862L140.202 50.8727Z" fill="white"/>
<path d="M174 71.0828H190.15V63.3212C193.494 66.7287 197.707 69.2529 202.789 70.8935C207.805 72.4711 213.756 73.2599 220.644 73.2599C237.095 73.2599 249.6 70.2941 258.16 64.3624C266.72 58.4307 271 49.407 271 37.2913C271 25.1756 266.754 16.1519 258.261 10.2202C249.768 4.28858 237.463 1.32275 221.346 1.32275C206.099 1.32275 194.597 3.626 186.84 8.2325C179.082 12.839 174.903 19.1177 174.301 27.0687H201.585C202.254 24.9863 204.06 22.9985 207.002 21.1055C209.945 19.2124 214.726 18.2658 221.346 18.2658C229.572 18.2658 239.421 19.9065 243.5 23.1879C247.579 26.4692 249.5 31.1704 249.5 37.2913C249.5 50.4167 243.419 56.9794 226.5 56.9794C221.618 56.9794 211.65 56.443 208.507 55.3703C205.364 54.2344 203.09 52.9408 201.686 51.4894C200.214 49.975 199.445 48.5867 199.378 47.3247H218.738V33.4105H174V71.0828Z" fill="white"/>
<path d="M22.3754 100.069C22.3018 98.2693 21.529 97.0291 20.0569 96.3483C18.5848 95.6431 16.4994 95.2905 13.8006 95.2905C8.722 95.2905 6.18268 96.555 6.18268 99.0839C6.18268 100.105 6.52616 100.835 7.21313 101.272C7.92463 101.71 9.02868 102.002 10.5253 102.148L20.2777 103.023C22.8784 103.266 24.8779 103.947 26.2764 105.066C27.6994 106.184 28.4109 107.996 28.4109 110.501C28.4109 113.467 27.1842 115.607 24.7307 116.92C22.3018 118.209 18.7934 118.853 14.2054 118.853C9.71564 118.853 6.24402 118.148 3.79057 116.738C1.33713 115.303 0.0736033 112.859 0 109.406H5.15223C5.25037 111.546 6.07228 113.03 7.61795 113.856C9.16362 114.659 11.384 115.06 14.279 115.06C17.125 115.06 19.2963 114.707 20.7929 114.002C22.3141 113.273 23.0746 112.203 23.0746 110.792C23.0746 109.552 22.7066 108.689 21.9706 108.203C21.2591 107.692 20.2041 107.364 18.8057 107.218L8.97961 106.27C6.35442 106.002 4.35486 105.345 2.98093 104.3C1.60701 103.254 0.920042 101.601 0.920042 99.3392C0.920042 96.6401 2.04863 94.6583 4.30579 93.3938C6.5875 92.1293 9.76471 91.4971 13.8374 91.4971C22.8416 91.4971 27.405 94.3543 27.5276 100.069H22.3754Z" fill="white"/>
<path d="M48.0837 91.4971C51.2241 91.4971 53.9842 92.0077 56.3641 93.029C58.7684 94.0503 60.6453 95.5823 61.9947 97.6249C63.3441 99.6675 64.0188 102.184 64.0188 105.175C64.0188 108.166 63.3441 110.683 61.9947 112.726C60.6453 114.768 58.7684 116.3 56.3641 117.321C53.9842 118.343 51.2241 118.853 48.0837 118.853C44.9187 118.853 42.1341 118.343 39.7297 117.321C37.3499 116.3 35.4852 114.768 34.1358 112.726C32.7864 110.683 32.1118 108.166 32.1118 105.175C32.1118 102.184 32.7864 99.6675 34.1358 97.6249C35.4852 95.5823 37.3499 94.0503 39.7297 93.029C42.1341 92.0077 44.9187 91.4971 48.0837 91.4971ZM48.0837 114.841C51.3958 114.841 54.0087 114.039 55.9224 112.434C57.8607 110.805 58.8298 108.385 58.8298 105.175C58.8298 101.965 57.8607 99.5581 55.9224 97.9532C54.0087 96.324 51.3958 95.5093 48.0837 95.5093C44.7715 95.5093 42.1463 96.324 40.2081 97.9532C38.2944 99.5581 37.3376 101.965 37.3376 105.175C37.3376 108.385 38.2944 110.805 40.2081 112.434C42.1463 114.039 44.7715 114.841 48.0837 114.841Z" fill="white"/>
<path d="M69.1207 118.197V92.1536H73.8313V114.148H94.2563V118.197H69.1207Z" fill="white"/>
<path d="M125.626 92.1536V108.203C125.626 111.802 124.374 114.476 121.872 116.227C119.369 117.978 115.959 118.853 111.641 118.853C107.323 118.853 103.913 117.978 101.41 116.227C98.9076 114.476 97.6564 111.802 97.6564 108.203V92.1536H102.367V108.057C102.367 110.367 103.189 112.093 104.833 113.236C106.501 114.355 108.77 114.914 111.641 114.914C114.512 114.914 116.769 114.355 118.413 113.236C120.081 112.093 120.915 110.367 120.915 108.057V92.1536H125.626Z" fill="white"/>
<path d="M158.883 96.2388H146.886V118.197H142.175V96.2388H130.214V92.1536H158.883V96.2388Z" fill="white"/>
<path d="M163.461 118.197V92.1536H168.172V118.197H163.461Z" fill="white"/>
<path d="M189.217 91.4971C192.357 91.4971 195.117 92.0077 197.497 93.029C199.901 94.0503 201.778 95.5823 203.128 97.6249C204.477 99.6675 205.152 102.184 205.152 105.175C205.152 108.166 204.477 110.683 203.128 112.726C201.778 114.768 199.901 116.3 197.497 117.321C195.117 118.343 192.357 118.853 189.217 118.853C186.052 118.853 183.267 118.343 180.863 117.321C178.483 116.3 176.618 114.768 175.269 112.726C173.919 110.683 173.245 108.166 173.245 105.175C173.245 102.184 173.919 99.6675 175.269 97.6249C176.618 95.5823 178.483 94.0503 180.863 93.029C183.267 92.0077 186.052 91.4971 189.217 91.4971ZM189.217 114.841C192.529 114.841 195.142 114.039 197.055 112.434C198.994 110.805 199.963 108.385 199.963 105.175C199.963 101.965 198.994 99.5581 197.055 97.9532C195.142 96.324 192.529 95.5093 189.217 95.5093C185.904 95.5093 183.279 96.324 181.341 97.9532C179.427 99.5581 178.471 101.965 178.471 105.175C178.471 108.385 179.427 110.805 181.341 112.434C183.279 114.039 185.904 114.841 189.217 114.841Z" fill="white"/>
<path d="M238.333 92.1536V118.197H232.997L214.891 98.0626H214.743V118.197H210.254V92.1536H215.774L233.696 112.106H233.844V92.1536H238.333Z" fill="white"/>
<path d="M264.965 100.069C264.891 98.2693 264.118 97.0291 262.646 96.3483C261.174 95.6431 259.089 95.2905 256.39 95.2905C251.311 95.2905 248.772 96.555 248.772 99.0839C248.772 100.105 249.115 100.835 249.802 101.272C250.514 101.71 251.618 102.002 253.114 102.148L262.867 103.023C265.467 103.266 267.467 103.947 268.866 105.066C270.289 106.184 271 107.996 271 110.501C271 113.467 269.773 115.607 267.32 116.92C264.891 118.209 261.383 118.853 256.795 118.853C252.305 118.853 248.833 118.148 246.38 116.738C243.926 115.303 242.663 112.859 242.589 109.406H247.741C247.839 111.546 248.661 113.03 250.207 113.856C251.753 114.659 253.973 115.06 256.868 115.06C259.714 115.06 261.885 114.707 263.382 114.002C264.903 113.273 265.664 112.203 265.664 110.792C265.664 109.552 265.296 108.689 264.56 108.203C263.848 107.692 262.793 107.364 261.395 107.218L251.569 106.27C248.944 106.002 246.944 105.345 245.57 104.3C244.196 103.254 243.509 101.601 243.509 99.3392C243.509 96.6401 244.638 94.6583 246.895 93.3938C249.177 92.1293 252.354 91.4971 256.427 91.4971C265.431 91.4971 269.994 94.3543 270.117 100.069H264.965Z" fill="white"/>
</svg>
