<svg width="121" height="53" viewBox="0 0 121 53" fill="none" xmlns="http://www.w3.org/2000/svg">
<path d="M10.1801 12.7723H34.4694V19.5144H10.1801V25.1402H34.9605V32.4627H0V0.583008H34.4694V7.86087H10.1801V12.7723Z" fill="#2926B4"/>
<path d="M62.599 22.4184C63.998 22.2092 64.9803 21.5814 65.5459 20.5352C66.1412 19.4889 66.4389 17.9777 66.4389 16.0015C66.4389 14.0252 66.1859 12.607 65.6798 11.7468C65.2036 10.9098 64.4892 10.4913 63.5367 10.4913C62.7627 10.4913 62.1972 10.747 61.84 11.2585C61.4828 11.77 61.2298 12.607 61.0809 13.7695L60.0093 23.6739C59.6819 26.6034 58.7443 28.8005 57.1964 30.2652C55.6486 31.73 53.3119 32.4623 50.1865 32.4623C47.2991 32.4623 45.0667 31.8578 43.4891 30.6489C41.9114 29.4399 40.825 27.6845 40.2296 25.3828C39.6046 23.1043 39.292 20.1399 39.292 16.4897C39.292 12.979 39.6194 10.1077 40.2743 7.87567C40.9292 5.66694 42.09 3.94645 43.7569 2.71421C45.4536 1.50522 47.8498 0.854229 50.9455 0.761229L50.9455 9.96815C49.1 10.2239 47.8498 10.8981 47.195 11.9909C46.5401 13.0836 46.2127 14.7227 46.2127 16.9082C46.2127 19.0704 46.4657 20.6398 46.9717 21.6163C47.5075 22.5928 48.3261 23.081 49.4274 23.081C50.3502 23.081 51.0199 22.802 51.4367 22.244C51.8831 21.6861 52.1659 20.8956 52.285 19.8726L53.4905 10.282C53.8775 7.30605 54.7854 5.07407 56.2141 3.58608C57.6429 2.12134 59.8903 1.38897 62.9562 1.38897C66.7365 1.38897 69.3857 2.65609 70.9038 5.19032C72.4517 7.72455 73.2256 11.4445 73.2256 16.3502C73.2256 21.2559 72.4368 24.9875 70.8592 27.545C69.3113 30.1257 66.5579 31.4742 62.599 31.5905L62.599 22.4184Z" fill="#2926B4"/>
<path d="M77.69 31.3247H84.9009V27.9044C86.3938 29.406 88.2749 30.5183 90.5442 31.2413C92.7836 31.9365 95.441 32.2841 98.5164 32.2841C105.862 32.2841 111.445 30.9771 115.267 28.3632C119.089 25.7492 121 21.7727 121 16.4336C121 11.0944 119.104 7.11789 115.312 4.50394C111.52 1.88998 106.026 0.583008 98.83 0.583008C92.0222 0.583008 86.8865 1.598 83.4229 3.62798C79.9593 5.65797 78.0931 8.42486 77.8244 11.9287H90.0067C90.3053 11.011 91.1115 10.1351 92.4253 9.30081C93.7391 8.46657 95.874 8.04945 98.83 8.04945C102.503 8.04945 106.9 8.77246 108.721 10.2185C110.543 11.6645 111.4 13.7362 111.4 16.4336C111.4 22.2176 108.685 25.1097 101.131 25.1097C98.9513 25.1097 94.5005 24.8733 93.0971 24.4005C91.6937 23.9 90.6785 23.3299 90.0515 22.6904C89.3946 22.023 89.0513 21.4112 89.0214 20.855H97.6655V14.7234H77.69V31.3247Z" fill="#2926B4"/>
<path d="M9.9905 44.0981C9.95764 43.3052 9.61257 42.7587 8.9553 42.4586C8.29803 42.1479 7.3669 41.9925 6.1619 41.9925C3.89432 41.9925 2.76053 42.5497 2.76053 43.6642C2.76053 44.1142 2.9139 44.4357 3.22062 44.6286C3.5383 44.8215 4.03125 44.9501 4.69948 45.0144L9.05389 45.4001C10.2151 45.5073 11.1079 45.8073 11.7323 46.3003C12.3676 46.7932 12.6853 47.5915 12.6853 48.6953C12.6853 50.0026 12.1376 50.9456 11.0421 51.5242C9.95764 52.0922 8.39114 52.3762 6.34265 52.3762C4.33798 52.3762 2.78792 52.0654 1.69247 51.4439C0.59702 50.8116 0.0328635 49.7347 0 48.213H2.30044C2.34426 49.156 2.71124 49.8097 3.40137 50.174C4.0915 50.5277 5.08289 50.7045 6.37552 50.7045C7.64624 50.7045 8.61571 50.5491 9.28393 50.2383C9.96311 49.9169 10.3027 49.4454 10.3027 48.8238C10.3027 48.2773 10.1384 47.8969 9.80975 47.6826C9.49207 47.4576 9.02103 47.3129 8.39662 47.2486L4.00935 46.8307C2.83721 46.7128 1.94442 46.4235 1.33097 45.9627C0.717519 45.5019 0.410794 44.7732 0.410794 43.7767C0.410794 42.5872 0.9147 41.7139 1.92251 41.1566C2.94128 40.5994 4.35989 40.3208 6.17834 40.3208C10.1986 40.3208 12.2362 41.5799 12.2909 44.0981H9.9905Z" fill="#2926B4"/>
<path d="M21.4691 40.3208C22.8713 40.3208 24.1037 40.5458 25.1662 40.9959C26.2398 41.446 27.0778 42.1211 27.6803 43.0212C28.2828 43.9213 28.584 45.0304 28.584 46.3485C28.584 47.6665 28.2828 48.7756 27.6803 49.6758C27.0778 50.5759 26.2398 51.251 25.1662 51.7011C24.1037 52.1511 22.8713 52.3762 21.4691 52.3762C20.056 52.3762 18.8126 52.1511 17.7391 51.7011C16.6765 51.251 15.844 50.5759 15.2415 49.6758C14.639 48.7756 14.3377 47.6665 14.3377 46.3485C14.3377 45.0304 14.639 43.9213 15.2415 43.0212C15.844 42.1211 16.6765 41.446 17.7391 40.9959C18.8126 40.5458 20.056 40.3208 21.4691 40.3208ZM21.4691 50.608C22.948 50.608 24.1146 50.2544 24.9691 49.5472C25.8345 48.8292 26.2672 47.763 26.2672 46.3485C26.2672 44.934 25.8345 43.8731 24.9691 43.1659C24.1146 42.4479 22.948 42.0889 21.4691 42.0889C19.9902 42.0889 18.8181 42.4479 17.9527 43.1659C17.0983 43.8731 16.671 44.934 16.671 46.3485C16.671 47.763 17.0983 48.8292 17.9527 49.5472C18.8181 50.2544 19.9902 50.608 21.4691 50.608Z" fill="#2926B4"/>
<path d="M30.862 52.0868V40.6101H32.9653V50.3026H42.0849V52.0868H30.862Z" fill="#2926B4"/>
<path d="M56.0912 40.6101V47.6826C56.0912 49.2686 55.5325 50.4473 54.4151 51.2188C53.2978 51.9904 51.7751 52.3762 49.8471 52.3762C47.9191 52.3762 46.3964 51.9904 45.2791 51.2188C44.1617 50.4473 43.603 49.2686 43.603 47.6826V40.6101H45.7063V47.6183C45.7063 48.6363 46.0733 49.3971 46.8072 49.9008C47.5521 50.3937 48.5654 50.6402 49.8471 50.6402C51.1288 50.6402 52.1366 50.3937 52.8705 49.9008C53.6154 49.3971 53.9879 48.6363 53.9879 47.6183V40.6101H56.0912Z" fill="#2926B4"/>
<path d="M70.9403 42.4104H65.5836V52.0868H63.4803V42.4104H58.14V40.6101H70.9403V42.4104Z" fill="#2926B4"/>
<path d="M72.9844 52.0868V40.6101H75.0877V52.0868H72.9844Z" fill="#2926B4"/>
<path d="M84.4842 40.3208C85.8864 40.3208 87.1187 40.5458 88.1813 40.9959C89.2549 41.446 90.0929 42.1211 90.6954 43.0212C91.2979 43.9213 91.5991 45.0304 91.5991 46.3485C91.5991 47.6665 91.2979 48.7756 90.6954 49.6758C90.0929 50.5759 89.2549 51.251 88.1813 51.7011C87.1187 52.1511 85.8864 52.3762 84.4842 52.3762C83.0711 52.3762 81.8277 52.1511 80.7542 51.7011C79.6916 51.251 78.8591 50.5759 78.2566 49.6758C77.6541 48.7756 77.3528 47.6665 77.3528 46.3485C77.3528 45.0304 77.6541 43.9213 78.2566 43.0212C78.8591 42.1211 79.6916 41.446 80.7542 40.9959C81.8277 40.5458 83.0711 40.3208 84.4842 40.3208ZM84.4842 50.608C85.963 50.608 87.1297 50.2544 87.9841 49.5472C88.8496 48.8292 89.2823 47.763 89.2823 46.3485C89.2823 44.934 88.8496 43.8731 87.9841 43.1659C87.1297 42.4479 85.963 42.0889 84.4842 42.0889C83.0053 42.0889 81.8332 42.4479 80.9678 43.1659C80.1133 43.8731 79.6861 44.934 79.6861 46.3485C79.6861 47.763 80.1133 48.8292 80.9678 49.5472C81.8332 50.2544 83.0053 50.608 84.4842 50.608Z" fill="#2926B4"/>
<path d="M106.415 40.6101V52.0868H104.032L95.9475 43.2141H95.8818V52.0868H93.8771V40.6101H96.3419L104.344 49.4025H104.41V40.6101H106.415Z" fill="#2926B4"/>
<path d="M118.305 44.0981C118.272 43.3052 117.927 42.7587 117.27 42.4586C116.613 42.1479 115.682 41.9925 114.477 41.9925C112.209 41.9925 111.075 42.5497 111.075 43.6642C111.075 44.1142 111.229 44.4357 111.535 44.6286C111.853 44.8215 112.346 44.9501 113.014 45.0144L117.369 45.4001C118.53 45.5073 119.423 45.8073 120.047 46.3003C120.682 46.7932 121 47.5915 121 48.6953C121 50.0026 120.452 50.9456 119.357 51.5242C118.272 52.0922 116.706 52.3762 114.657 52.3762C112.653 52.3762 111.103 52.0654 110.007 51.4439C108.912 50.8116 108.348 49.7347 108.315 48.213H110.615C110.659 49.156 111.026 49.8097 111.716 50.174C112.406 50.5277 113.398 50.7045 114.69 50.7045C115.961 50.7045 116.93 50.5491 117.599 50.2383C118.278 49.9169 118.617 49.4454 118.617 48.8238C118.617 48.2773 118.453 47.8969 118.124 47.6826C117.807 47.4576 117.336 47.3129 116.711 47.2486L112.324 46.8307C111.152 46.7128 110.259 46.4235 109.646 45.9627C109.032 45.5019 108.726 44.7732 108.726 43.7767C108.726 42.5872 109.229 41.7139 110.237 41.1566C111.256 40.5994 112.675 40.3208 114.493 40.3208C118.513 40.3208 120.551 41.5799 120.606 44.0981H118.305Z" fill="#2926B4"/>
</svg>
